<svg xmlns="http://www.w3.org/2000/svg" width="100%" viewBox="0 0 115 28" fill="#1863ad"
     class="spear-header--logo"
     role="img" aria-labeledby="spear-header--logo-title  spear-header--logo-desc">
    <title id="spear-header--logo-title">Spear Logo</title>
    <desc id="spear-header--logo-desc">Spear is a world class leader in dental education.</desc><g>
    <path d="M115 2.72612C115.001 3.15859 114.879 3.58174 114.649 3.94191C114.419 4.30207 114.091
    4.58304 113.707 4.74918C113.323 4.91532 112.9 4.95915 112.492 4.87512C112.084 4.79109 111.709
     4.58297 111.415 4.27717C111.121 3.97136 110.921 3.58164 110.84 3.1574C110.759 2.73317 110.801
      2.29354 110.961 1.89425C111.121 1.49496 111.391 1.154 111.737 0.914596C112.084 0.675191
       112.491 0.548125 112.907 0.549511C113.461 0.552578 113.992 0.782884 114.384 1.19041C114.776
        1.59795 114.997 2.14979 115 2.72612ZM114.809 2.72612C114.807 2.19964 114.604 1.69546 114.245
         1.32449C113.886 0.953526 113.4 0.746163 112.893 0.748021C112.642 0.748942 112.394 0.801199
          112.163 0.90181C111.932 1.00242 111.722 1.14942 111.545 1.3344C111.188 1.70799 110.989
           2.21365 110.991 2.74014C110.993 3.26662 111.195 3.7708 111.555 4.14177C111.914 4.51273
            112.4 4.72009 112.907 4.71824C113.413 4.71638 113.898 4.50545 114.255 4.13186C114.611
             3.75826 114.811 3.25261 114.809 2.72612ZM113.295 2.8896L113.969 3.78874H113.574L112.954
              2.94332H112.404V3.7794H112.08V1.55141H113.044C113.52 1.55141 113.857 1.81064 113.857
              2.22634C113.858 2.38932 113.801 2.54702 113.698 2.66936C113.594 2.79169 113.451 2.87009
               113.295 2.8896ZM113.01 2.65606C113.313 2.65606 113.522 2.51126 113.522 2.25203C113.522
               1.9928 113.336 1.85968 113.028 1.85968H112.397V2.65606H113.01Z"></path>
    <path d="M62.4189 18.7401L62.8098 18.9106L61.7474 26.9001H41.0204V26.1994L44.9219
    25.4708V2.21467L41.0204 1.47901V0.778382H60.7726L61.7204 7.78465L61.37 8.06957L58.3355
    4.59212C56.9093 2.9947 56.3927 2.1446 53.9557 2.1446H48.8683V13.1631H50.9571C53.32 13.1631
    54.2319 12.1822 54.9394 9.31201L55.2943 7.95513H55.8873V19.4828H55.2943L54.9394 18.2053C54.2319
    15.3421 53.32 14.3145 50.9571 14.3145H48.8683V25.5105H55.0405C57.3742 25.5105 57.8796 24.8542
    58.9869 23.3339L62.4189 18.7401ZM12.1064 12.5069C10.6442 11.7665 9.10791 11.199 7.72656 10.5381C4.88525
    9.26764 4.05644 7.74961 4.05644 5.78786C4.05644 3.03907 5.75 1.35056 7.91972 1.35056C10.5611 1.35056
    12.778 3.31932 15.0241 7.99483L15.6575 7.90842L14.9814 0.0427246H14.4289L12.814 1.44398C11.5681 0.608144
    10.1167 0.163774 8.63398 0.164166C5.00879 0.164166 0.864746 2.49959 0.864746 7.70758C0.864746 10.7436 2.08887
    12.7124 4.88525 14.1463C6.10937 14.7559 7.45254 15.2954 8.75976 15.8278C12.5781 17.5117 13.5237 18.7845 13.5237
    21.2951C13.5237 24.3661 11.5022 26.3372 8.63398 26.3372C5.8331 26.3372 3.1917 24.7024 0.624414 18.5906L0
    18.6607L0.469434 27.6427H1.05791L2.64141 26.2415C4.13506 27.0145 6.42158 27.5049 8.43633 27.5049C12.0615
    27.5049 16.7154 24.7188 16.7154 19.0204C16.7154 16.0334 15.2981 14.1113 12.1064 12.5069ZM110.537 24.5646C111.766
    25.5876 112.437 25.9659 114.048 26.1994V26.9001H109.47C106.393 26.9001 105.876 25.674 104.461 22.5585L102.296
    17.8433C101.074 15.258 100.023 14.7372 98.4261 14.6905V13.5345H99.338C102.53 13.5345 105.29 11.5657
    105.29 7.67021C105.29 3.77473 102.53 1.84567 99.338 1.84567C98.424 1.82958 97.5109 1.91254 96.6135
    2.09322V25.4708L100.519 26.1994V26.9001H79.2871V26.1994L83.1886 25.4638L80.2686 17.2898H71.6279L68.7978
    25.1905L71.6369 26.1994V26.9001H64.4988V26.1994L67.3042 25.0924L76.3672 0.533163H78.2202L87.3371 25.2653L89.8437
    26.0033L92.6716 25.4708V2.21467L88.7679 1.47901V0.778382H100.203C106.2 0.778382 109.706 3.44543 109.706
    7.46002C109.706 10.5825 107.112 13.0417 102.613 13.9852V14.193C104.702 14.8937 106.207 16.762 107.065
    18.6163C108.372 21.2413 109.398 23.5417 110.537 24.5646ZM79.7655 15.9516L75.9741 5.37215H75.8977L72.1108
    15.9516H79.7655ZM30.5469 0.778382H19.1435V1.47901L23.0539 2.21467V25.4708L19.1435
    26.1994V26.9001H30.9018V26.1994L26.9958 25.4638V2.09322C27.8925 1.91826 28.8035 1.83534 29.7158
    1.84567C33.2287 1.84567 35.1603 4.18109 35.1603 8.07891C35.1603 12.3457 33.2669 14.3845 29.6372 14.3845C29.3183
    14.3845 29.033 14.3845 28.7725 14.3705V15.3934C29.5766 15.4775 30.4009 15.5359 31.1398 15.5359C36.8539 15.5359
    39.5762 11.5984 39.5762 7.94579C39.5762 3.93821 36.5776 0.778382 30.5469 0.778382Z"></path>
</g>
</svg>