<?xml version="1.0" encoding="utf-8"?>
<svg xmlns="http://www.w3.org/2000/svg" viewBox="180.78 452.1728 662.4401 119.6544" width="662.44px" height="119.654px">
  <g id="g16" transform="matrix(1, 0, 0, 1, -1.4210854715202004e-14, 128)">
    <path style="fill:#161641" id="path2" d="m 432.29962,324.63615 h 28.2337 v 119.13131 h -28.2337 z"/>
    <path style="fill:#161641" id="path4" d="m 595.8423,324.63615 v 119.12994 h -27.99662 l -50.5107,-68.97688 v 68.97688 h -28.2337 V 324.63061 h 26.08918 l 52.41679,71.00637 v -71.00083 h 28.23506 z"/>
    <path style="fill:#161641" id="path6" d="m 717.81025,324.63615 v 25.13546 h -33.23803 v 94.00002 H 656.2193 v -94.00975 h -33.46957 v -25.12573 z"/>
    <path id="polygon8" d="M 843.22005,443.755 797.23547,324.63061 H 765.43216 L 719.32976,443.755 h 32.04588 l 30.02612,-85.41085 15.01578,42.87661 14.88558,42.53424 z" style="fill:#161641"/>
    <path style="fill:#5b57f0" id="path10" d="m 781.21887,402.37536 10.19749,29.27169 c 2.06282,5.92129 -2.33325,12.10796 -8.60357,12.10796 h -15.89325 z"/>
    <path style="fill:#161641" id="path12" d="m 280.47179,411.5524 c 0,17.92925 -12.07264,32.27478 -34.78462,32.27478 H 180.77996 V 324.17283 h 62.99466 c 22.71198,0 34.42607,14.5816 34.42607,30.48025 0,15.06263 -9.44299,25.10201 -20.67961,27.49293 12.67082,2.03237 22.95072,14.34553 22.95072,29.40638 z M 209.1098,369.23646 h 29.04694 c 6.69351,0 11.11681,-3.94404 11.11681,-10.04116 0,-6.09534 -4.42329,-10.16008 -11.11681,-10.16008 H 209.1098 Z m 42.43486,38.73044 c 0,-6.69529 -4.90077,-11.11681 -12.55101,-11.11681 h -29.88386 v 22.11292 h 29.88386 c 4.78096,0 12.55101,-1.4342 12.55101,-10.99611 z"/>
    <path style="fill:#161641" id="path14" d="M 404.20266,443.82717 H 371.68915 L 349.81408,404.2607 h -14.10502 v 39.44577 H 307.37922 V 324.17282 h 55.94259 c 24.86328,0 40.16375,16.37613 40.16375,38.60974 0,21.15619 -13.26899,32.51263 -26.17855,35.50172 l 26.89565,45.54288 z m -68.4936,-67.7765 h 23.78763 c 9.08444,0 15.06085,-5.25932 15.06085,-13.26811 0,-8.00879 -5.8566,-13.26988 -15.06085,-13.26988 h -23.78763 z"/>
  </g>
</svg>