<svg width="501" height="152" viewBox="0 0 501 152" fill="none" xmlns="http://www.w3.org/2000/svg">
<g clip-path="url(#clip0_2358_78591)">
<path d="M50.0085 35.9338C47.8577 34.6981 45.5603 33.7096 43.1652 33.0176C40.1835 32.1279 37.0062 31.5842 33.7312 31.5842C24.8349 31.5842 16.7207 35.143 10.7573 40.9753C7.62894 43.9904 5.23379 47.6974 3.62073 51.7504V51.7998C2.25207 55.2597 1.27446 58.8678 0.687891 62.6737C0.150203 67.9624 0.883413 73.3005 2.692 78.1443C2.692 78.1937 2.74088 78.2432 2.74088 78.2926C2.83864 78.5892 2.98528 78.8857 3.13192 79.2317C8.01999 90.7976 19.0181 99.0519 31.9715 99.7438C32.0204 99.7438 32.0204 99.7438 32.0693 99.7438C32.5092 99.7438 32.9002 99.7933 33.3402 99.7933C33.5357 99.7933 33.7312 99.7933 33.8779 99.7933C34.4155 99.7933 35.0021 99.7933 35.5398 99.7438C36.0775 99.6944 36.6152 99.645 37.1529 99.5956C37.2017 99.5956 37.2017 99.5956 37.2506 99.5956C41.6499 99.1013 45.9025 97.7173 49.7641 95.592C42.6275 94.0103 36.2241 87.6343 33.9267 78.8857C33.5357 77.3041 33.2424 75.7224 33.1446 74.1902C32.9002 71.0763 33.2424 68.0612 34.0734 65.3428C35.0999 62.0312 36.8107 59.0656 39.1081 56.8413C41.0633 54.9631 43.4096 53.5792 46.0491 52.8378C54.0656 50.7124 62.5219 55.3091 67.0189 63.5634C66.2857 51.6515 59.5891 41.4202 50.0085 35.9338Z" fill="#FFC800"/>
<path d="M96.6898 57.2862C92.8771 43.4467 80.9991 33.1659 66.7748 32.6222C66.3349 32.6222 65.895 32.5728 65.455 32.5728C59.8338 32.5728 53.8703 32.9187 49.2267 35.3407C60.4203 41.519 67.3125 54.4688 66.9703 66.6773C66.8237 71.7682 65.5528 76.9086 63.011 81.703C59.8338 87.7825 55.0435 92.4287 49.52 95.4931C45.7561 97.6185 41.5524 99.0024 37.1043 99.4473H37.0554C37.0554 99.4473 13.446 101.968 3.81655 80.4179C1.91021 76.1672 0.394907 70.6808 0.394907 64.4531C0.199384 66.2819 0.297145 68.5555 0.297145 70.4337C0.297145 97.8162 22.2446 120.058 49.3733 120.058C76.2088 120.058 98.0096 98.261 98.4006 71.2245C98.4006 70.9774 98.4006 70.7303 98.4006 70.4337C98.4984 65.9853 97.8629 61.5369 96.6898 57.2862Z" fill="url(#paint0_linear_2358_78591)"/>
<path d="M49.4241 24.8621C48.8376 14.5813 56.7562 3.90512 67.0701 0.988931C69.4652 0.296955 72.0559 0.0992475 74.5488 0.0498207C82.1253 -0.049033 89.7018 0.000393824 97.2294 0.000393824C97.7182 0.000393824 98.1582 0.0498207 98.8425 0.0992475C98.8425 3.80626 98.1093 7.31557 96.4962 10.5283C91.9014 19.6723 84.4227 24.5655 74.3044 24.8127C66.0436 25.0598 57.8316 24.8621 49.4241 24.8621Z" fill="#3AC968"/>
<path d="M6.06596 4.84415C5.62604 13.1479 11.9805 21.7976 20.3391 24.1206C22.2943 24.6643 24.3473 24.862 26.4003 24.9115C32.5104 25.0103 38.5716 24.9609 44.6817 24.9609C45.0727 24.9609 45.4638 24.9115 46.0014 24.862C46.0014 21.847 45.4149 19.0297 44.0951 16.4595C40.3313 9.04544 34.319 5.09129 26.1559 4.89358C19.5081 4.69587 12.8604 4.84415 6.06596 4.84415Z" fill="#00A500"/>
<path d="M6.06572 4.84415C5.62579 13.1479 11.9803 21.7976 20.3389 24.1206C22.2941 24.6643 24.3471 24.862 26.4001 24.9115C32.5101 25.0103 38.5713 24.9609 44.6814 24.9609C45.0725 24.9609 45.4635 24.9115 46.0012 24.862C46.0012 21.847 45.4146 19.0297 44.0949 16.4595C40.331 9.04544 34.3187 5.09129 26.1557 4.89358C19.5079 4.69587 12.8601 4.84415 6.06572 4.84415Z" fill="#00A500"/>
<path d="M147.77 32.7211C149.726 32.7211 151.534 32.9188 153.245 33.2648C154.614 33.5613 155.885 33.9073 157.009 34.3522C157.449 34.5004 157.644 34.9947 157.547 35.4395L154.223 45.9675C154.076 46.4123 153.587 46.7089 153.147 46.5606L151.632 46.1652C150.85 45.9675 149.823 45.8686 148.65 45.8686C146.597 45.8686 145.033 46.5112 143.811 47.8457C142.638 49.1802 142.002 50.9596 142.002 53.3321V57.5828H153.978C154.467 57.5828 154.809 57.9782 154.809 58.423V68.605C154.809 69.0992 154.418 69.4452 153.978 69.4452H142.002V108.74C142.002 109.234 141.611 109.58 141.171 109.58H129.098C128.609 109.58 128.267 109.184 128.267 108.74V69.4452H119.86C119.371 69.4452 119.029 69.0498 119.029 68.605V58.423C119.029 57.9288 119.42 57.5828 119.86 57.5828H128.267V52.4918C128.267 49.3285 128.756 46.5112 129.685 44.0398C130.613 41.6179 131.982 39.542 133.742 37.8615C135.501 36.1809 137.554 34.9453 139.949 34.0556C142.296 33.1659 144.935 32.7211 147.77 32.7211Z" fill="#3AC968"/>
<path d="M237.809 102.759C237.809 102.759 233.165 107.454 230.477 108.987C227.739 110.519 224.611 111.26 221.141 111.26C214.639 111.26 209.8 109.234 206.623 105.23C203.446 101.177 201.833 95.839 201.833 89.117V58.4229C201.833 57.9286 202.224 57.5826 202.664 57.5826H214.737C215.226 57.5826 215.568 57.9781 215.568 58.4229V87.387C215.568 91.1435 216.399 93.9114 218.012 95.7402C219.674 97.569 222.069 98.4586 225.198 98.4586C227.104 98.4586 228.766 98.0632 230.184 97.223C231.601 96.4321 232.823 95.2953 233.85 93.9114C234.876 92.5274 235.658 90.8963 236.147 89.0181C236.685 87.1399 236.929 85.1628 236.929 83.0375V58.4229C236.929 57.9286 237.32 57.5826 237.76 57.5826H249.834C250.322 57.5826 250.664 57.9781 250.664 58.4229V108.739C250.664 109.234 250.273 109.58 249.834 109.58H238.591C238.102 109.58 237.76 109.184 237.76 108.739V102.759H237.809Z" fill="#3AC968"/>
<path d="M259.902 33.5612H271.976C272.464 33.5612 272.807 33.9566 272.807 34.4014V63.8104C274.077 61.6356 276.033 59.7574 278.672 58.1757C281.312 56.6435 284.636 55.8527 288.546 55.8527C291.821 55.8527 294.95 56.5446 297.931 57.9286C300.913 59.3125 303.553 61.2402 305.801 63.6621C308.098 66.084 309.858 69.0002 311.227 72.4107C312.547 75.8211 313.231 79.5281 313.231 83.5811C313.231 87.6341 312.547 91.3411 311.227 94.7516C309.907 98.162 308.098 101.078 305.801 103.5C303.504 105.922 300.913 107.85 297.931 109.234C294.95 110.618 291.821 111.31 288.546 111.31C284.636 111.31 280.579 110.667 277.939 109.085C275.299 107.553 271.976 103.352 271.976 103.352V108.739C271.976 109.234 271.585 109.58 271.145 109.58H259.902C259.413 109.58 259.071 109.184 259.071 108.739V34.4014C259.071 33.9566 259.413 33.5612 259.902 33.5612ZM285.711 98.4092C287.52 98.4092 289.279 98.0632 290.892 97.3712C292.554 96.6792 293.972 95.6907 295.243 94.4056C296.514 93.1205 297.54 91.5883 298.273 89.7595C299.055 87.9307 299.447 85.8548 299.447 83.5811C299.447 81.3075 299.055 79.281 298.273 77.4028C297.491 75.574 296.465 73.9923 295.243 72.7566C293.972 71.4715 292.505 70.483 290.892 69.791C289.23 69.0991 287.52 68.7531 285.711 68.7531C283.902 68.7531 282.143 69.0991 280.53 69.7416C278.868 70.4336 277.45 71.3727 276.179 72.6578C274.908 73.9429 273.882 75.4751 273.149 77.3533C272.367 79.1821 271.976 81.2581 271.976 83.6305C271.976 86.003 272.367 88.079 273.149 89.9077C273.931 91.7365 274.957 93.3182 276.179 94.6033C277.45 95.8884 278.868 96.8275 280.53 97.5195C282.192 98.0632 283.902 98.4092 285.711 98.4092Z" fill="#3AC968"/>
<path d="M352.483 104.044C352.483 104.044 348.084 107.702 345.835 109.135C343.538 110.568 340.654 111.26 337.085 111.26C334.446 111.26 331.904 110.816 329.558 109.926C327.212 109.036 325.159 107.801 323.399 106.268C321.639 104.736 320.27 102.858 319.293 100.634C318.315 98.4588 317.826 96.0369 317.826 93.4173C317.826 90.7482 318.364 88.3263 319.391 86.1516C320.417 83.9768 321.932 82.148 323.79 80.5663C325.696 79.0341 327.896 77.8478 330.438 77.0076C332.979 76.2168 335.766 75.7719 338.796 75.7719C342.169 75.7719 344.906 76.019 347.106 76.5627C349.257 77.1064 351.065 77.6501 352.483 78.1938V76.6122C352.483 73.8443 351.408 71.5706 349.208 69.7418C347.057 67.913 344.32 67.0234 341.143 67.0234C336.597 67.0234 332.735 68.8522 329.558 72.5097C329.265 72.8557 328.776 72.9052 328.434 72.658L319.831 66.7268C319.439 66.4302 319.342 65.8371 319.635 65.4911C325.061 59.0162 332.295 55.8035 341.387 55.8035C349.355 55.8035 355.465 57.6817 359.668 61.4876C363.872 65.2934 365.974 70.8787 365.974 78.2927V108.641C365.974 109.135 365.583 109.481 365.143 109.481H353.314C352.825 109.481 352.483 109.086 352.483 108.641V104.044V104.044ZM352.483 88.4252C350.87 87.6344 349.208 87.0412 347.497 86.547C345.786 86.1021 343.929 85.855 341.876 85.855C338.601 85.855 336.059 86.5964 334.25 88.0298C332.442 89.4632 331.562 91.2919 331.562 93.3679C331.562 95.4932 332.442 97.1737 334.153 98.4588C335.863 99.7439 337.868 100.386 340.067 100.386C341.876 100.386 343.587 100.041 345.102 99.398C346.617 98.706 347.937 97.8657 349.061 96.7289C350.137 95.6415 350.968 94.3564 351.603 92.923C352.19 91.4897 352.483 90.0068 352.483 88.4252Z" fill="#3AC968"/>
<path d="M385.867 64.3543C385.867 64.3543 389.485 59.7082 392.222 58.176C394.959 56.6437 399.065 55.8529 402.585 55.8529C405.811 55.8529 408.646 56.3966 411.09 57.4346C413.534 58.4725 415.538 60.0048 417.102 61.9324C418.666 63.8601 419.888 66.2325 420.67 68.951C421.452 71.6695 421.892 74.6845 421.892 78.0456V108.74C421.892 109.234 421.501 109.58 421.061 109.58H408.988C408.499 109.58 408.157 109.184 408.157 108.74V79.7755C408.157 76.0191 407.326 73.2512 405.713 71.4224C404.051 69.5936 401.656 68.7039 398.527 68.7039C396.621 68.7039 394.959 69.0993 393.542 69.9396C392.124 70.7304 390.902 71.8672 389.876 73.2512C388.849 74.6351 388.067 76.2662 387.578 78.1444C387.041 80.0226 386.796 81.9997 386.796 84.1251V108.74C386.796 109.234 386.405 109.58 385.965 109.58H373.794C373.305 109.58 372.963 109.184 372.963 108.74V58.3737C372.963 57.8794 373.354 57.5334 373.794 57.5334H385.036C385.525 57.5334 385.867 57.9288 385.867 58.3737V64.3543Z" fill="#3AC968"/>
<path d="M463.147 104.044C463.147 104.044 458.748 107.702 456.499 109.135C454.202 110.569 451.318 111.261 447.75 111.261C445.11 111.261 442.568 110.816 440.222 109.926C437.876 109.036 435.823 107.801 434.063 106.268C432.303 104.736 430.935 102.858 429.957 100.634C428.98 98.459 428.491 96.037 428.491 93.4174C428.491 90.7484 429.028 88.3264 430.055 86.1517C431.081 83.9769 432.597 82.1481 434.454 80.5664C436.36 79.0342 438.56 77.848 441.102 77.0077C443.644 76.2169 446.43 75.772 449.46 75.772C452.833 75.772 455.571 76.0192 457.77 76.5629C459.921 77.1065 461.729 77.6502 463.147 78.1939V76.6123C463.147 73.8444 462.072 71.5707 459.872 69.742C457.721 67.9132 454.984 67.0235 451.807 67.0235C447.261 67.0235 443.399 68.8523 440.222 72.5098C439.929 72.8558 439.44 72.9053 439.098 72.6581C439.098 72.6581 430.006 65.8372 430.348 65.4418C435.774 58.9669 443.008 55.7542 452.1 55.7542C460.068 55.7542 466.178 57.6324 470.381 61.4382C474.585 65.2441 476.687 70.8293 476.687 78.2434V108.591C476.687 109.086 476.296 109.432 475.856 109.432H464.027C463.538 109.432 463.196 109.036 463.196 108.591V104.044H463.147ZM463.147 88.4253C461.534 87.6345 459.872 87.0413 458.161 86.5471C456.45 86.1022 454.593 85.8551 452.54 85.8551C449.265 85.8551 446.723 86.5965 444.915 88.0299C443.106 89.4633 442.226 91.2921 442.226 93.368C442.226 95.4933 443.106 97.1738 444.817 98.4589C446.528 99.744 448.532 100.387 450.731 100.387C452.54 100.387 454.251 100.041 455.766 99.3981C457.281 98.7061 458.601 97.8658 459.725 96.729C460.801 95.6416 461.632 94.3565 462.267 92.9231C462.854 91.4898 463.147 90.007 463.147 88.4253Z" fill="#3AC968"/>
<path d="M491.304 109.579C488.762 109.579 486.611 108.69 484.852 106.96C483.043 105.23 482.163 103.105 482.163 100.633C482.163 98.1618 483.043 96.0859 484.852 94.4054C486.66 92.6755 488.811 91.8352 491.304 91.8352C493.846 91.8352 495.947 92.6755 497.707 94.4054C499.467 96.1353 500.347 98.2113 500.347 100.633C500.347 103.105 499.467 105.18 497.707 106.96C495.996 108.69 493.846 109.579 491.304 109.579Z" fill="#00A500"/>
<path d="M195.332 57.5331C192.302 57.5331 189.271 57.4836 186.241 57.5331C184.627 57.5825 183.014 57.5331 181.499 57.8791C178.029 58.6699 175.145 61.7344 174.363 65.1448V58.3733C174.363 57.8791 173.971 57.5331 173.532 57.5331H162.289C161.8 57.5331 161.458 57.9285 161.458 58.3733V108.69C161.458 109.184 161.849 109.53 162.289 109.53H173.532C174.02 109.53 174.363 109.135 174.363 108.69V69.4944C174.363 68.5553 175.096 67.8139 176.024 67.7644C179.935 67.6656 183.943 67.715 187.805 67.2207C192.253 66.677 195.626 61.9815 195.332 57.5331Z" fill="#3AC968"/>
</g>
<defs>
<linearGradient id="paint0_linear_2358_78591" x1="0.346026" y1="76.3909" x2="98.4885" y2="76.3909" gradientUnits="userSpaceOnUse">
<stop stop-color="#FFCB00"/>
<stop offset="0.272" stop-color="#FFA600"/>
<stop offset="0.6723" stop-color="#FF7400"/>
<stop offset="1" stop-color="#FF6800"/>
</linearGradient>
<clipPath id="clip0_2358_78591">
<rect width="500" height="151.394" fill="white" transform="translate(0.347656)"/>
</clipPath>
</defs>
</svg>
